<?xml version="1.0" standalone="no"?>
<!DOCTYPE svg PUBLIC "-//W3C//DTD SVG 20010904//EN"
 "http://www.w3.org/TR/2001/REC-SVG-20010904/DTD/svg10.dtd">
<svg version="1.0" xmlns="http://www.w3.org/2000/svg"
 width="539.000000pt" height="515.000000pt" viewBox="0 0 539.000000 515.000000"
 preserveAspectRatio="xMidYMid meet">

<g transform="translate(0.000000,515.000000) scale(0.100000,-0.100000)"
fill="#000000" stroke="none">
<path d="M4325 3761 c-22 -8 -84 -41 -137 -73 -53 -32 -100 -58 -103 -58 -5 0
-61 -35 -155 -97 -36 -23 -38 -23 -408 -26 -204 -2 -375 -7 -378 -10 -4 -4
-10 -26 -14 -49 -12 -74 -63 -324 -135 -658 -8 -36 -28 -132 -45 -215 -17 -82
-37 -179 -45 -215 -14 -62 -53 -254 -75 -370 -5 -30 -15 -77 -20 -105 -6 -27
-13 -61 -15 -75 -9 -53 -67 -308 -86 -377 -10 -39 -19 -80 -19 -91 0 -21 -17
-33 -135 -97 -38 -21 -76 -42 -82 -47 -7 -6 -13 -7 -13 -2 0 5 -5 2 -10 -6 -6
-10 -4 -20 7 -32 8 -9 13 -23 10 -30 -4 -8 -6 -7 -6 5 -1 9 -5 17 -10 17 -5 0
-12 -8 -14 -17 -3 -12 -5 -9 -5 7 0 14 -9 61 -21 105 l-22 80 31 125 c16 69
64 294 106 500 41 206 93 461 115 565 131 627 199 963 199 991 0 12 -53 14
-369 14 l-369 0 -84 -66 c-220 -176 -560 -414 -589 -414 -5 0 -9 -4 -9 -10 0
-6 104 -10 291 -10 337 0 308 -7 423 110 l70 70 118 0 c97 0 118 -3 118 -15 0
-8 -14 -79 -31 -157 -17 -79 -46 -217 -64 -308 -40 -196 -159 -768 -215 -1034
-22 -104 -40 -202 -40 -219 0 -28 50 -119 210 -385 69 -114 134 -212 142 -212
4 0 17 9 28 20 11 11 27 20 35 20 9 0 55 23 104 50 49 28 93 50 99 50 6 0 12
4 14 9 2 5 31 23 66 40 35 18 67 41 72 54 19 44 141 597 236 1072 29 149 58
293 64 320 6 28 19 93 30 145 10 52 30 149 45 215 14 66 34 166 44 221 10 56
21 106 24 111 4 6 61 10 129 9 135 -1 147 -5 188 -63 14 -19 44 -57 67 -84 23
-27 47 -58 53 -70 11 -19 14 -17 56 37 24 31 60 75 79 98 20 22 55 66 79 96
23 30 97 122 162 204 102 129 143 183 241 324 21 30 16 32 -32 13z"/>
</g>
</svg>
